<svg width="96" height="96" viewBox="0 0 96 96" fill="none" xmlns="http://www.w3.org/2000/svg">
<path fill-rule="evenodd" clip-rule="evenodd" d="M48.0001 86.4C58.1844 86.4 67.9516 82.3543 75.153 75.1529C82.3544 67.9515 86.4001 58.1843 86.4001 48C86.4001 37.8157 82.3544 28.0485 75.153 20.8471C67.9516 13.6457 58.1844 9.59998 48.0001 9.59998C37.8158 9.59998 28.0486 13.6457 20.8472 20.8471C13.6458 28.0485 9.6001 37.8157 9.6001 48C9.6001 58.1843 13.6458 67.9515 20.8472 75.1529C28.0486 82.3543 37.8158 86.4 48.0001 86.4ZM65.7937 41.7936C66.6681 40.8883 67.1519 39.6758 67.1409 38.4173C67.13 37.1587 66.6252 35.9548 65.7352 35.0649C64.8453 34.1749 63.6414 33.6701 62.3828 33.6591C61.1243 33.6482 59.9118 34.132 59.0065 35.0064L43.2001 50.8128L36.9937 44.6064C36.0884 43.732 34.8759 43.2482 33.6174 43.2591C32.3588 43.2701 31.1549 43.7749 30.265 44.6649C29.375 45.5548 28.8702 46.7587 28.8593 48.0173C28.8483 49.2758 29.3321 50.4883 30.2065 51.3936L39.8065 60.9936C40.7066 61.8934 41.9273 62.399 43.2001 62.399C44.4729 62.399 45.6936 61.8934 46.5937 60.9936L65.7937 41.7936Z" fill="#00FFD1"/>
</svg>
